<svg width="1200" height="320" viewBox="0 0 1200 320" fill="none" xmlns="http://www.w3.org/2000/svg">
  <defs>
    <linearGradient id="bg" x1="120" y1="28" x2="1080" y2="292" gradientUnits="userSpaceOnUse">
      <stop stop-color="#FFF7ED"/>
      <stop offset="0.45" stop-color="#EFF6FF"/>
      <stop offset="1" stop-color="#F5F3FF"/>
    </linearGradient>
    <linearGradient id="accentA" x1="0" y1="0" x2="1" y2="1">
      <stop stop-color="#F97316"/>
      <stop offset="1" stop-color="#FB7185"/>
    </linearGradient>
    <linearGradient id="accentB" x1="0" y1="0" x2="1" y2="1">
      <stop stop-color="#0EA5E9"/>
      <stop offset="1" stop-color="#6366F1"/>
    </linearGradient>
    <linearGradient id="accentC" x1="0" y1="0" x2="1" y2="1">
      <stop stop-color="#22C55E"/>
      <stop offset="1" stop-color="#06B6D4"/>
    </linearGradient>
    <filter id="shadow" x="0" y="0" width="1200" height="320" filterUnits="userSpaceOnUse" color-interpolation-filters="sRGB">
      <feDropShadow dx="0" dy="16" stdDeviation="18" flood-color="#0F172A" flood-opacity="0.12"/>
    </filter>
  </defs>

  <rect x="20" y="20" width="1160" height="280" rx="32" fill="url(#bg)"/>
  <rect x="20" y="20" width="1160" height="280" rx="32" stroke="#E5E7EB"/>

  <g opacity="0.55">
    <circle cx="962" cy="84" r="112" fill="url(#accentB)"/>
    <circle cx="1040" cy="210" r="132" fill="url(#accentA)"/>
    <circle cx="886" cy="228" r="76" fill="url(#accentC)"/>
  </g>

  <g filter="url(#shadow)">
    <rect x="80" y="72" width="126" height="126" rx="28" fill="#0F172A"/>
    <path d="M108 96H126V176H108V96Z" fill="url(#accentB)"/>
    <path d="M137 96H155V176H137V96Z" fill="url(#accentC)"/>
    <path d="M108 124H155V142H108V124Z" fill="url(#accentA)"/>
    <path d="M171 96H187L156 176H140L171 96Z" fill="url(#accentA)"/>
  </g>

  <text x="246" y="132" fill="#111827" font-family="'Avenir Next', 'Segoe UI', Arial, sans-serif" font-size="68" font-weight="800" letter-spacing="-2">i18nZeal</text>
  <text x="248" y="170" fill="#475569" font-family="'Avenir Next', 'Segoe UI', Arial, sans-serif" font-size="22" font-weight="600">Type-safe i18n for KMP and Compose Multiplatform</text>

  <g>
    <rect x="248" y="204" width="146" height="38" rx="19" fill="#FFFFFF" stroke="#D6D3D1"/>
    <text x="276" y="229" fill="#9A3412" font-family="'IBM Plex Sans', 'Segoe UI', Arial, sans-serif" font-size="18" font-weight="700">Typed keys</text>

    <rect x="405" y="204" width="160" height="38" rx="19" fill="#FFFFFF" stroke="#D6D3D1"/>
    <text x="426" y="229" fill="#1D4ED8" font-family="'IBM Plex Sans', 'Segoe UI', Arial, sans-serif" font-size="18" font-weight="700">Gradle plugin</text>

    <rect x="576" y="204" width="195" height="38" rx="19" fill="#FFFFFF" stroke="#D6D3D1"/>
    <text x="594" y="229" fill="#0F766E" font-family="'IBM Plex Sans', 'Segoe UI', Arial, sans-serif" font-size="18" font-weight="700">Runtime switching</text>
  </g>

  <g opacity="0.72">
    <path d="M850 70C889 53 939 64 966 97C992 129 994 177 970 208C946 239 898 252 859 238C818 223 788 182 791 141C793 107 818 84 850 70Z" fill="#FFFFFF"/>
    <path d="M816 154H974" stroke="#CBD5E1" stroke-width="4"/>
    <path d="M832 118H958" stroke="#CBD5E1" stroke-width="4"/>
    <path d="M832 190H958" stroke="#CBD5E1" stroke-width="4"/>
    <path d="M895 88C869 115 856 150 856 178C856 208 869 230 895 250" stroke="#CBD5E1" stroke-width="4"/>
    <path d="M892 88C918 115 931 150 931 178C931 208 918 230 892 250" stroke="#CBD5E1" stroke-width="4"/>
    <path d="M857 104C877 118 913 118 931 104" stroke="#CBD5E1" stroke-width="4"/>
    <path d="M857 228C877 214 913 214 931 228" stroke="#CBD5E1" stroke-width="4"/>
  </g>
</svg>
